<svg
  id="visual"
  viewBox="0 0 960 300"
  width="960"
  height="300"
  xmlns="http://www.w3.org/2000/svg"
  xmlns:xlink="http://www.w3.org/1999/xlink"
  version="1.1"
><path
    d="M0 182L22.8 187.5C45.7 193 91.3 204 137 210.5C182.7 217 228.3 219 274 212.5C319.7 206 365.3 191 411.2 187C457 183 503 190 548.8 191C594.7 192 640.3 187 686 190.8C731.7 194.7 777.3 207.3 823 209.2C868.7 211 914.3 202 937.2 197.5L960 193L960 301L937.2 301C914.3 301 868.7 301 823 301C777.3 301 731.7 301 686 301C640.3 301 594.7 301 548.8 301C503 301 457 301 411.2 301C365.3 301 319.7 301 274 301C228.3 301 182.7 301 137 301C91.3 301 45.7 301 22.8 301L0 301Z"
    fill="#7ce3a7"
  /><path
    d="M0 196L22.8 201.7C45.7 207.3 91.3 218.7 137 219.2C182.7 219.7 228.3 209.3 274 205.2C319.7 201 365.3 203 411.2 205.7C457 208.3 503 211.7 548.8 216.5C594.7 221.3 640.3 227.7 686 231C731.7 234.3 777.3 234.7 823 231.8C868.7 229 914.3 223 937.2 220L960 217L960 301L937.2 301C914.3 301 868.7 301 823 301C777.3 301 731.7 301 686 301C640.3 301 594.7 301 548.8 301C503 301 457 301 411.2 301C365.3 301 319.7 301 274 301C228.3 301 182.7 301 137 301C91.3 301 45.7 301 22.8 301L0 301Z"
    fill="#69d595"
  /><path
    d="M0 225L22.8 225.3C45.7 225.7 91.3 226.3 137 227.3C182.7 228.3 228.3 229.7 274 233.3C319.7 237 365.3 243 411.2 243C457 243 503 237 548.8 236.7C594.7 236.3 640.3 241.7 686 244.7C731.7 247.7 777.3 248.3 823 248.5C868.7 248.7 914.3 248.3 937.2 248.2L960 248L960 301L937.2 301C914.3 301 868.7 301 823 301C777.3 301 731.7 301 686 301C640.3 301 594.7 301 548.8 301C503 301 457 301 411.2 301C365.3 301 319.7 301 274 301C228.3 301 182.7 301 137 301C91.3 301 45.7 301 22.8 301L0 301Z"
    fill="#55c883"
  /><path
    d="M0 267L22.8 264.8C45.7 262.7 91.3 258.3 137 258C182.7 257.7 228.3 261.3 274 261C319.7 260.7 365.3 256.3 411.2 257.2C457 258 503 264 548.8 263C594.7 262 640.3 254 686 249.5C731.7 245 777.3 244 823 246C868.7 248 914.3 253 937.2 255.5L960 258L960 301L937.2 301C914.3 301 868.7 301 823 301C777.3 301 731.7 301 686 301C640.3 301 594.7 301 548.8 301C503 301 457 301 411.2 301C365.3 301 319.7 301 274 301C228.3 301 182.7 301 137 301C91.3 301 45.7 301 22.8 301L0 301Z"
    fill="#40bb71"
  /><path
    d="M0 281L22.8 279C45.7 277 91.3 273 137 272.7C182.7 272.3 228.3 275.7 274 278C319.7 280.3 365.3 281.7 411.2 278.8C457 276 503 269 548.8 267.8C594.7 266.7 640.3 271.3 686 272.3C731.7 273.3 777.3 270.7 823 270.8C868.7 271 914.3 274 937.2 275.5L960 277L960 301L937.2 301C914.3 301 868.7 301 823 301C777.3 301 731.7 301 686 301C640.3 301 594.7 301 548.8 301C503 301 457 301 411.2 301C365.3 301 319.7 301 274 301C228.3 301 182.7 301 137 301C91.3 301 45.7 301 22.8 301L0 301Z"
    fill="#27ae60"
  /></svg>
