<svg id="visual" viewBox="0 0 960 300" width="960" height="300" xmlns="http://www.w3.org/2000/svg" xmlns:xlink="http://www.w3.org/1999/xlink" version="1.1"><path d="M0 213L22.8 211.3C45.7 209.7 91.3 206.3 137 205.2C182.7 204 228.3 205 274 208C319.7 211 365.3 216 411.2 211.5C457 207 503 193 548.8 186.8C594.7 180.7 640.3 182.3 686 184.2C731.7 186 777.3 188 823 189C868.7 190 914.3 190 937.2 190L960 190L960 301L937.2 301C914.3 301 868.7 301 823 301C777.3 301 731.7 301 686 301C640.3 301 594.7 301 548.8 301C503 301 457 301 411.2 301C365.3 301 319.7 301 274 301C228.3 301 182.7 301 137 301C91.3 301 45.7 301 22.8 301L0 301Z" fill="#fab281"/><path d="M0 218L22.8 218.7C45.7 219.3 91.3 220.7 137 217.7C182.7 214.7 228.3 207.3 274 203.5C319.7 199.7 365.3 199.3 411.2 202.2C457 205 503 211 548.8 216.7C594.7 222.3 640.3 227.7 686 230.3C731.7 233 777.3 233 823 229.3C868.7 225.7 914.3 218.3 937.2 214.7L960 211L960 301L937.2 301C914.3 301 868.7 301 823 301C777.3 301 731.7 301 686 301C640.3 301 594.7 301 548.8 301C503 301 457 301 411.2 301C365.3 301 319.7 301 274 301C228.3 301 182.7 301 137 301C91.3 301 45.7 301 22.8 301L0 301Z" fill="#f4a26a"/><path d="M0 224L22.8 228.2C45.7 232.3 91.3 240.7 137 240C182.7 239.3 228.3 229.7 274 225.5C319.7 221.3 365.3 222.7 411.2 222.7C457 222.7 503 221.3 548.8 226.2C594.7 231 640.3 242 686 246.2C731.7 250.3 777.3 247.7 823 247C868.7 246.3 914.3 247.7 937.2 248.3L960 249L960 301L937.2 301C914.3 301 868.7 301 823 301C777.3 301 731.7 301 686 301C640.3 301 594.7 301 548.8 301C503 301 457 301 411.2 301C365.3 301 319.7 301 274 301C228.3 301 182.7 301 137 301C91.3 301 45.7 301 22.8 301L0 301Z" fill="#ee9153"/><path d="M0 245L22.8 244.2C45.7 243.3 91.3 241.7 137 241.5C182.7 241.3 228.3 242.7 274 244.5C319.7 246.3 365.3 248.7 411.2 250.2C457 251.7 503 252.3 548.8 253C594.7 253.7 640.3 254.3 686 254C731.7 253.7 777.3 252.3 823 250C868.7 247.7 914.3 244.3 937.2 242.7L960 241L960 301L937.2 301C914.3 301 868.7 301 823 301C777.3 301 731.7 301 686 301C640.3 301 594.7 301 548.8 301C503 301 457 301 411.2 301C365.3 301 319.7 301 274 301C228.3 301 182.7 301 137 301C91.3 301 45.7 301 22.8 301L0 301Z" fill="#e7803c"/><path d="M0 271L22.8 271.3C45.7 271.7 91.3 272.3 137 273.7C182.7 275 228.3 277 274 275.8C319.7 274.7 365.3 270.3 411.2 271.2C457 272 503 278 548.8 280.8C594.7 283.7 640.3 283.3 686 281.8C731.7 280.3 777.3 277.7 823 275.3C868.7 273 914.3 271 937.2 270L960 269L960 301L937.2 301C914.3 301 868.7 301 823 301C777.3 301 731.7 301 686 301C640.3 301 594.7 301 548.8 301C503 301 457 301 411.2 301C365.3 301 319.7 301 274 301C228.3 301 182.7 301 137 301C91.3 301 45.7 301 22.8 301L0 301Z" fill="#e06f24"/></svg>