<svg
  id="visual"
  viewBox="0 0 960 300"
  width="960"
  height="300"
  xmlns="http://www.w3.org/2000/svg"
  xmlns:xlink="http://www.w3.org/1999/xlink"
  version="1.1"
>
<g id="layer1">
    <path
      d="M0 174L22.8 177.5C45.7 181 91.3 188 137 192.2C182.7 196.3 228.3 197.7 274 200.8C319.7 204 365.3 209 411.2 208.7C457 208.3 503 202.7 548.8 197.2C594.7 191.7 640.3 186.3 686 190.7C731.7 195 777.3 209 823 208.7C868.7 208.3 914.3 193.7 937.2 186.3L960 179L960 301L937.2 301C914.3 301 868.7 301 823 301C777.3 301 731.7 301 686 301C640.3 301 594.7 301 548.8 301C503 301 457 301 411.2 301C365.3 301 319.7 301 274 301C228.3 301 182.7 301 137 301C91.3 301 45.7 301 22.8 301L0 301Z"
      fill="#103249"
    /><path
      d="M0 221L22.8 217.5C45.7 214 91.3 207 137 207.3C182.7 207.7 228.3 215.3 274 217C319.7 218.7 365.3 214.3 411.2 212.3C457 210.3 503 210.7 548.8 209.3C594.7 208 640.3 205 686 209.2C731.7 213.3 777.3 224.7 823 227.3C868.7 230 914.3 224 937.2 221L960 218L960 301L937.2 301C914.3 301 868.7 301 823 301C777.3 301 731.7 301 686 301C640.3 301 594.7 301 548.8 301C503 301 457 301 411.2 301C365.3 301 319.7 301 274 301C228.3 301 182.7 301 137 301C91.3 301 45.7 301 22.8 301L0 301Z"
      fill="#164563"
    /><path
      d="M0 219L22.8 220.3C45.7 221.7 91.3 224.3 137 228.2C182.7 232 228.3 237 274 236.5C319.7 236 365.3 230 411.2 229.3C457 228.7 503 233.3 548.8 237.2C594.7 241 640.3 244 686 241.8C731.7 239.7 777.3 232.3 823 228.2C868.7 224 914.3 223 937.2 222.5L960 222L960 301L937.2 301C914.3 301 868.7 301 823 301C777.3 301 731.7 301 686 301C640.3 301 594.7 301 548.8 301C503 301 457 301 411.2 301C365.3 301 319.7 301 274 301C228.3 301 182.7 301 137 301C91.3 301 45.7 301 22.8 301L0 301Z"
      fill="#1c587f"
    /><path
      d="M0 248L22.8 249C45.7 250 91.3 252 137 254C182.7 256 228.3 258 274 257.8C319.7 257.7 365.3 255.3 411.2 254.7C457 254 503 255 548.8 256C594.7 257 640.3 258 686 255.5C731.7 253 777.3 247 823 246C868.7 245 914.3 249 937.2 251L960 253L960 301L937.2 301C914.3 301 868.7 301 823 301C777.3 301 731.7 301 686 301C640.3 301 594.7 301 548.8 301C503 301 457 301 411.2 301C365.3 301 319.7 301 274 301C228.3 301 182.7 301 137 301C91.3 301 45.7 301 22.8 301L0 301Z"
      fill="#226c9b"
    /><path
      d="M0 282L22.8 280.7C45.7 279.3 91.3 276.7 137 273.3C182.7 270 228.3 266 274 268C319.7 270 365.3 278 411.2 278.8C457 279.7 503 273.3 548.8 273C594.7 272.7 640.3 278.3 686 280C731.7 281.7 777.3 279.3 823 277.3C868.7 275.3 914.3 273.7 937.2 272.8L960 272L960 301L937.2 301C914.3 301 868.7 301 823 301C777.3 301 731.7 301 686 301C640.3 301 594.7 301 548.8 301C503 301 457 301 411.2 301C365.3 301 319.7 301 274 301C228.3 301 182.7 301 137 301C91.3 301 45.7 301 22.8 301L0 301Z"
      fill="#2980b9"
    />
</g>
</svg>
